<svg id="圖層_1" data-name="圖層 1" xmlns="http://www.w3.org/2000/svg" viewBox="0 0 99.16 21.07"><defs><style>.cls-1{fill:#0e0a0b;}.cls-1,.cls-2,.cls-3{fill-rule:evenodd;}.cls-2{fill:#67ad32;}.cls-3{fill:#e37921;}</style></defs><path class="cls-1" d="M11.05,3.78H21.71c.29,0,.35.07.35.35q0,8.32,0,16.65c0,.23,0,.32-.31.32q-10.66,0-21.35,0c-.32,0-.4-.07-.4-.4Q0,12.43,0,4.15c0-.32.08-.38.39-.38C3.94,3.79,7.5,3.78,11.05,3.78Zm2.47,1.05H9.91A8.12,8.12,0,0,0,8.14,5a7.54,7.54,0,0,0-5.91,5.43c-.07.23,0,.55-.2.69s-.47.05-.72,0-.27.09-.26.29c0,.51,0,1,0,1.53,0,.79,0,.79.78.79.19,0,.25.06.29.24a7.45,7.45,0,0,0,.81,2.18A7.22,7.22,0,0,0,9.11,20c3,.14,6,0,9,0,.21,0,.25-.08.25-.27,0-.37,0-.74,0-1.1s-.08-.38-.38-.38H10.21c-.58,0-.59,0-.58.6,0,.25-.06.32-.31.31a6.58,6.58,0,0,1-4.58-2.05A6.58,6.58,0,0,1,3,11,6.52,6.52,0,0,1,5.4,7.09,6.37,6.37,0,0,1,9.05,5.68c.56,0,.58,0,.57.56,0,.26.08.31.31.3H18c.24,0,.35,0,.33-.32a9.55,9.55,0,0,1,0-1.07c0-.26-.06-.33-.32-.33ZM13.29,12H5.75c-.16,0-.25,0-.21-.22a4.21,4.21,0,0,1,1-2.07,4.15,4.15,0,0,1,3.2-1.38H20.62c.32,0,.4-.08.39-.39,0-.86,0-1.71,0-2.57,0-.56,0-.55-.57-.55-.2,0-.26,0-.26.25,0,.67,0,1.35,0,2,0,.31-.05.42-.4.42-3.36,0-6.72,0-10.07,0a5.5,5.5,0,0,0-1.22.14,4.92,4.92,0,0,0,1.22,9.72q5.07,0,10.14,0c.26,0,.34.06.33.32,0,.6,0,1.2,0,1.79s0,.56.56.57C21,20,21,20,21,19.76c0-1,0-2,0-3,0-.18,0-.25-.23-.25-2.68,0-5.36,0-8,0-1.16,0-2.32,0-3.48,0a4.06,4.06,0,0,1-3.62-3c-.17-.66-.17-.67.51-.67l14.59,0c.17,0,.28,0,.26-.23a1.5,1.5,0,0,1,0-.3c0-.26-.06-.34-.33-.34C18.21,12,15.75,12,13.29,12ZM14,9.31H9.86c-.22,0-.27.06-.27.27,0,.41,0,.82,0,1.23,0,.18,0,.27.25.27h8.22c.22,0,.28-.08.27-.29,0-.4,0-.8,0-1.2,0-.24-.08-.28-.3-.28Zm0,6.25c1.35,0,2.71,0,4.06,0,.28,0,.35-.09.34-.35a11.42,11.42,0,0,1,0-1.17c0-.2-.06-.25-.26-.25H9.87c-.23,0-.28.08-.27.29,0,.4,0,.8,0,1.2,0,.22.07.29.29.29Z" transform="translate(0 -0.03)"/><path class="cls-1" d="M59,12.42c0-2.74,0-5.49,0-8.23,0-.3.08-.34.35-.34H68c.27,0,.31.09.31.33q0,8.27,0,16.54c0,.25-.06.32-.3.3a8,8,0,0,0-1,0c-.26,0-.34-.05-.34-.33,0-2,0-4,0-6,0-3,0-5.9,0-8.85,0-.26,0-.35-.33-.33-.54,0-1.08,0-1.62,0-.26,0-.35,0-.35.33q0,7.43,0,14.85c0,.28,0,.4-.36.37a5.53,5.53,0,0,0-.91,0c-.25,0-.34,0-.33-.31,0-.85,0-1.69,0-2.54q0-6.17,0-12.35c0-.28-.07-.37-.36-.36-.56,0-1.12,0-1.69,0-.22,0-.26.07-.26.27V20.6c0,.42,0,.42-.4.41s-.63,0-.94,0S59,21,59,20.77c0-1.08,0-2.17,0-3.25Z" transform="translate(0 -0.03)"/><path class="cls-1" d="M56.69,12.47q0,4.12,0,8.26c0,.26-.08.29-.31.29H51.48c-.24,0-.31-.05-.31-.3q0-8.25,0-16.51c0-.27,0-.37.35-.36,1.61,0,3.23,0,4.84,0,.26,0,.34.06.34.33Q56.68,8.34,56.69,12.47Zm-1.61,0h0q0-3.33,0-6.66c0-.28-.08-.34-.34-.33-.56,0-1.13,0-1.69,0-.2,0-.28,0-.28.26q0,6.73,0,13.46c0,.23.09.26.28.25.56,0,1.13,0,1.69,0,.26,0,.34-.05.34-.33Q55.08,15.76,55.08,12.43Z" transform="translate(0 -0.03)"/><path class="cls-1" d="M76.11,12.44q0,4.11,0,8.22c0,.31-.09.38-.38.36a5.9,5.9,0,0,0-.94,0c-.26,0-.29-.08-.29-.31,0-2.37,0-4.74,0-7.11,0-.33-.09-.4-.39-.39-.53,0-1.07,0-1.6,0-.23,0-.3,0-.3.29,0,2.39,0,4.77,0,7.15,0,.28,0,.39-.35.36A5.9,5.9,0,0,0,71,21c-.26,0-.35-.05-.34-.33,0-1.9,0-3.81,0-5.72,0-3.59,0-7.19,0-10.79,0-.26.06-.33.33-.33h4.84c.27,0,.34.06.34.33C76.11,6.93,76.11,9.69,76.11,12.44Zm-1.6-3.89c0-.94,0-1.88,0-2.82,0-.19,0-.27-.24-.26-.61,0-1.22,0-1.82,0-.15,0-.23,0-.23.2,0,1.92,0,3.83,0,5.75,0,.21.08.23.25.22h1.75c.24,0,.29-.07.29-.29C74.51,10.42,74.51,9.49,74.51,8.55Z" transform="translate(0 -0.03)"/><path class="cls-1" d="M27.89,12.42q0-4.12,0-8.26c0-.26.07-.31.32-.31h4.88c.22,0,.29,0,.29.28q0,8.32,0,16.64c0,.21-.07.26-.26.25A9.55,9.55,0,0,0,32,21c-.24,0-.29-.07-.29-.29q0-3.54,0-7.09c0-.42,0-.42-.44-.42s-1,0-1.49,0c-.32,0-.37.11-.37.39,0,2.36,0,4.72,0,7.08,0,.26,0,.37-.32.34a6.81,6.81,0,0,0-1,0c-.2,0-.26,0-.26-.25,0-.65,0-1.3,0-1.95Zm3.87-3.86c0-1,0-1.91,0-2.86,0-.18,0-.24-.22-.23-.62,0-1.24,0-1.85,0-.16,0-.23,0-.23.21,0,1.91,0,3.81,0,5.71,0,.18.05.25.24.25h1.81c.21,0,.25-.07.25-.26C31.75,10.44,31.76,9.5,31.76,8.56Z" transform="translate(0 -0.03)"/><path class="cls-1" d="M41.15,16.34c0,1.46,0,2.92,0,4.38,0,.22,0,.3-.28.3h-5c-.22,0-.27-.06-.27-.27,0-1.92,0-3.84,0-5.75,0-.23.07-.28.28-.27s.71,0,1.07,0,.29.06.29.29c0,1.36,0,2.73,0,4.09,0,.25.07.31.31.3.57,0,1.14,0,1.72,0,.22,0,.26-.07.26-.27,0-1.88,0-3.75,0-5.62,0-.23,0-.3-.28-.29H35.91c-.2,0-.28,0-.28-.27q0-4.43,0-8.87c0-.17,0-.24.22-.24h5.07c.17,0,.22,0,.22.22V9.89c0,.2-.07.23-.24.23-.37,0-.74,0-1.11,0-.21,0-.27,0-.27-.27,0-1.35,0-2.7,0-4.06,0-.24,0-.34-.31-.33-.57,0-1.15,0-1.72,0-.19,0-.26,0-.26.24,0,1.9,0,3.79,0,5.69,0,.21.08.25.27.24,1.11,0,2.23,0,3.34,0,.22,0,.29,0,.29.29,0,1.47,0,2.94,0,4.42Z" transform="translate(0 -0.03)"/><path class="cls-1" d="M48.9,16.35c0,1.46,0,2.93,0,4.39,0,.23-.06.28-.29.28H43.71c-.22,0-.29-.05-.28-.28,0-1.91,0-3.81,0-5.72,0-.22,0-.31.28-.29s.69,0,1,0,.27,0,.27.27c0,1.35,0,2.71,0,4.06,0,.26.06.35.33.34.56,0,1.13,0,1.69,0,.24,0,.29-.08.29-.29,0-1.88,0-3.75,0-5.62,0-.22-.08-.28-.29-.27-1.08,0-2.16,0-3.25,0-.31,0-.36-.1-.35-.38q0-4.35,0-8.71c0-.26.08-.29.31-.29h4.88c.24,0,.3.06.3.3,0,1.89,0,3.77,0,5.66,0,.27-.08.33-.33.31a8.51,8.51,0,0,0-1,0c-.22,0-.26-.06-.26-.27,0-1.36,0-2.71,0-4.07,0-.25-.07-.32-.32-.31-.57,0-1.13,0-1.69,0-.22,0-.3,0-.3.27,0,1.88,0,3.75,0,5.63,0,.21.06.28.27.27,1.11,0,2.21,0,3.32,0,.24,0,.31,0,.31.3,0,1.47,0,3,0,4.42Z" transform="translate(0 -0.03)"/><path class="cls-1" d="M93.68,12.43c0-2.75,0-5.51,0-8.26,0-.25.06-.32.32-.32h4.87c.25,0,.3.06.3.3,0,2.41,0,4.81,0,7.22,0,.23,0,.32-.3.3a9,9,0,0,0-1,0c-.23,0-.28-.07-.28-.29,0-1.86,0-3.73,0-5.59,0-.24,0-.34-.31-.33-.55,0-1.1,0-1.65,0-.28,0-.34.07-.34.34q0,6.42,0,12.84c0,.74,0,.74.76.74.42,0,.84,0,1.27,0,.21,0,.26-.06.26-.27,0-1.86,0-3.72,0-5.59,0-.31.09-.38.38-.36s.67,0,1,0c.16,0,.24,0,.24.21q0,3.72,0,7.44c0,.18-.07.19-.21.19h-5c-.28,0-.23-.14-.23-.3Z" transform="translate(0 -0.03)"/><path class="cls-1" d="M85.89,12.41c0-2.74,0-5.48,0-8.22,0-.25,0-.34.32-.34,1.63,0,3.25,0,4.87,0,.25,0,.31.06.31.31q0,8.27,0,16.54c0,.24,0,.35-.32.32a6.68,6.68,0,0,0-1,0c-.23,0-.28-.06-.28-.28,0-2.86,0-5.72,0-8.58q0-3.19,0-6.37c0-.25-.06-.33-.32-.32-.55,0-1.1,0-1.66,0-.24,0-.32,0-.32.3,0,1.38,0,2.76,0,4.13,0,3.6,0,7.19,0,10.79,0,.28-.08.35-.35.33a6.28,6.28,0,0,0-1,0c-.27,0-.31-.08-.31-.32Z" transform="translate(0 -0.03)"/><path class="cls-1" d="M83.61,12.44q0,4.12,0,8.25c0,.28-.08.35-.34.33a8.51,8.51,0,0,0-1,0C82,21,82,21,82,20.73q0-3.28,0-6.56V4.29c0-.43,0-.43.41-.43s.61,0,.91,0,.3.07.3.3Q83.6,8.31,83.61,12.44Z" transform="translate(0 -0.03)"/><path class="cls-1" d="M24.3,3.8A1.89,1.89,0,0,1,24.3,0a1.89,1.89,0,1,1,0,3.77ZM22.69,1.91A1.61,1.61,0,1,0,24.3.3,1.61,1.61,0,0,0,22.69,1.91Z" transform="translate(0 -0.03)"/><path class="cls-2" d="M13.52,4.83H18c.26,0,.34.07.32.33a9.55,9.55,0,0,0,0,1.07c0,.28-.09.32-.33.32H9.93c-.23,0-.32,0-.31-.3,0-.58,0-.6-.57-.56A6.37,6.37,0,0,0,5.4,7.09,6.52,6.52,0,0,0,3,11a6.58,6.58,0,0,0,1.78,6.2,6.58,6.58,0,0,0,4.58,2.05c.25,0,.31-.06.31-.31,0-.6,0-.6.58-.6H18c.3,0,.4.08.38.38s0,.73,0,1.1c0,.19,0,.27-.25.27-3,0-6,.1-9,0a7.22,7.22,0,0,1-6.18-3.86A7.45,7.45,0,0,1,2.12,14c0-.18-.1-.24-.29-.24-.78,0-.78,0-.78-.79,0-.51,0-1,0-1.53,0-.2,0-.3.26-.29s.57.11.72,0,.13-.46.2-.69A7.54,7.54,0,0,1,8.14,5a8.12,8.12,0,0,1,1.77-.13Z" transform="translate(0 -0.03)"/><path class="cls-3" d="M13.29,12c2.46,0,4.92,0,7.38,0,.27,0,.37.08.33.34a1.5,1.5,0,0,0,0,.3c0,.19-.09.23-.26.23l-14.59,0c-.68,0-.68,0-.51.67a4.06,4.06,0,0,0,3.62,3c1.16.07,2.32,0,3.48,0,2.67,0,5.35,0,8,0,.22,0,.23.07.23.25,0,1,0,2,0,3,0,.21-.05.28-.27.28-.56,0-.56,0-.56-.57s0-1.19,0-1.79c0-.26-.07-.32-.33-.32q-5.07,0-10.14,0A4.92,4.92,0,0,1,8.49,7.64,5.5,5.5,0,0,1,9.71,7.5c3.35,0,6.71,0,10.07,0,.35,0,.41-.11.4-.42,0-.67,0-1.35,0-2,0-.2.06-.25.26-.25.57,0,.57,0,.57.55,0,.86,0,1.71,0,2.57,0,.31-.07.39-.39.39H9.73a4.15,4.15,0,0,0-3.2,1.38,4.21,4.21,0,0,0-1,2.07c0,.19,0,.22.21.22h7.54Z" transform="translate(0 -0.03)"/><path class="cls-2" d="M14,9.31h4.06c.22,0,.31,0,.3.28,0,.4,0,.8,0,1.2,0,.21-.05.29-.27.29H9.85c-.21,0-.26-.09-.25-.27,0-.41,0-.82,0-1.23,0-.21.05-.27.27-.27Z" transform="translate(0 -0.03)"/><path class="cls-2" d="M14,15.56H9.89c-.22,0-.3-.07-.29-.29,0-.4,0-.8,0-1.2,0-.21,0-.29.27-.29h8.21c.2,0,.27,0,.26.25a11.42,11.42,0,0,0,0,1.17c0,.26-.06.35-.34.35C16.66,15.55,15.3,15.56,14,15.56Z" transform="translate(0 -0.03)"/><path class="cls-1" d="M24.59,2a2,2,0,0,1,.5,1c-.2.1-.3,0-.36-.17s-.13-.34-.2-.51a.4.4,0,0,0-.46-.23c-.21,0-.09.23-.11.35a2.94,2.94,0,0,0,0,.42c0,.09,0,.18-.12.18a.14.14,0,0,1-.16-.16c0-.59,0-1.18,0-1.78,0-.12.06-.18.18-.17s.28,0,.42,0c.3,0,.58,0,.67.38A.56.56,0,0,1,24.59,2ZM24,1.49c0,.16-.09.39.24.36s.46-.07.48-.36-.16-.34-.46-.37S24,1.31,24,1.49Z" transform="translate(0 -0.03)"/></svg>